<svg xmlns="http://www.w3.org/2000/svg" xmlns:xlink="http://www.w3.org/1999/xlink" version="1.1" x="0px" y="0px" viewBox="0 0 57.619 143.09375" enable-background="new 0 0 57.619 114.475" xml:space="preserve">
  <defs>
    <g><path fill="#000000" d="M53.619,114.475c1.024,0,2.047-0.391,2.829-1.172c1.562-1.562,1.562-4.095,0-5.656L9.387,60.588   C8.493,59.693,8,58.503,8,57.238c0-1.266,0.492-2.455,1.387-3.349L56.448,6.828c1.562-1.562,1.562-4.095,0-5.657   c-1.562-1.562-4.095-1.562-5.657,0L3.73,48.232C1.325,50.637,0,53.836,0,57.238c0,3.401,1.325,6.601,3.73,9.006l47.061,47.06   C51.572,114.085,52.596,114.475,53.619,114.475z"/></g>
  </defs>
</svg>